<?xml version="1.0" encoding="iso-8859-1"?>
<!-- Generator: Adobe Illustrator 19.0.0, SVG Export Plug-In . SVG Version: 6.00 Build 0)  -->
<svg version="1.1" id="Capa_1" xmlns="http://www.w3.org/2000/svg" xmlns:xlink="http://www.w3.org/1999/xlink" x="0px" y="0px"
	 viewBox="0 0 508 508" style="enable-background:new 0 0 508 508;" xml:space="preserve">
<g>
	<g>
		<path d="M430.4,0H77.6L0,112.1V508h508V112.1L430.4,0z M335.9,16.4h85.8l62.5,90.1H335.9V16.4z M188.5,16.4h131.1v90.1H188.5V16.4
			z M188.4,122.9h0.1h131.1v74.8l-16.4-10.9l-24.6,16.4L254,186.8l-24.6,16.4l-24.6-16.4l-16.4,10.9V122.9z M86.2,16.4H172v90.1
			H23.8L86.2,16.4z M491.8,491.6H16.4V122.9h155.7v105.4l32.8-21.9l24.6,16.4l24.6-16.4l24.6,16.4l24.6-16.4l32.8,21.9V122.9h155.7
			V491.6z"/>
	</g>
</g>
<g>
	<g>
		<polygon points="417.9,373.5 387.5,403.9 399.1,415.5 409.7,404.9 409.7,458.8 426.1,458.8 426.1,404.9 436.7,415.5 448.2,403.9 
					"/>
	</g>
</g>
<g>
	<g>
		<polygon points="344.1,373.5 313.8,403.9 325.3,415.5 335.9,404.9 335.9,458.8 352.3,458.8 352.3,404.9 362.9,415.5 374.5,403.9 
					"/>
	</g>
</g>
<g>
</g>
<g>
</g>
<g>
</g>
<g>
</g>
<g>
</g>
<g>
</g>
<g>
</g>
<g>
</g>
<g>
</g>
<g>
</g>
<g>
</g>
<g>
</g>
<g>
</g>
<g>
</g>
<g>
</g>
</svg>
