<?xml version="1.0" encoding="iso-8859-1"?>
<!-- Generator: Adobe Illustrator 19.0.0, SVG Export Plug-In . SVG Version: 6.00 Build 0)  -->
<svg version="1.1" id="Capa_1" xmlns="http://www.w3.org/2000/svg" xmlns:xlink="http://www.w3.org/1999/xlink" x="0px" y="0px"
	 viewBox="0 0 512 512" style="enable-background:new 0 0 512 512;" xml:space="preserve">
<g>
	<g>
		<circle cx="207.644" cy="333.305" r="14.216"/>
	</g>
</g>
<g>
	<g>
		<circle cx="167.818" cy="333.305" r="14.216"/>
	</g>
</g>
<g>
	<g>
		<circle cx="128.003" cy="333.305" r="14.216"/>
	</g>
</g>
<g>
	<g>
		<polygon points="304.366,416.009 304.355,416.009 304.355,416.009 		"/>
	</g>
</g>
<g>
	<g>
		<polygon points="31.289,416.009 31.283,416.009 31.243,416.009 		"/>
	</g>
</g>
<g>
	<g>
		<path d="M480.711,40.446H207.644c-17.265,0.034-31.254,14.018-31.289,31.278v105.21H31.289
			C14.023,176.968,0.034,190.951,0,208.211v176.515c0.034,17.26,14.023,31.243,31.283,31.278l42.547-0.153v47.178
			c0,3.34,1.957,6.378,5.001,7.76c3.043,1.388,6.622,0.859,9.142-1.337l60.365-53.635l156.018,0.193
			c17.265-0.034,31.254-14.018,31.289-31.278V279.424l27.3,0.023l61.076,53.276c2.52,2.202,6.092,2.725,9.142,1.342
			c3.043-1.388,5.001-4.42,5.001-7.766v-46.82l42.582-0.199h-0.034c17.265-0.034,31.254-14.012,31.289-31.272V71.723
			C511.965,54.464,497.976,40.48,480.711,40.446z M318.577,384.731c0,3.908-1.576,7.424-4.181,10.041
			c-2.617,2.599-6.132,4.176-10.041,4.176h-0.011l-159.215-0.188c-2.036,0.006-4.062,0.763-5.598,2.105l-48.628,43.4v-36.898
			c0-4.682-3.806-8.511-8.488-8.533l-51.08,0.12h-0.046c-3.908,0-7.424-1.576-10.041-4.176c-2.606-2.628-4.181-6.144-4.181-10.046
			v-176.52c0-3.908,1.576-7.424,4.181-10.035c2.617-2.606,6.132-4.181,10.041-4.187h273.066c3.908,0.006,7.424,1.581,10.041,4.187
			c2.606,2.617,4.181,6.132,4.181,10.035V384.731z M490.752,258.04c-2.617,2.606-6.132,4.176-10.041,4.181h-0.04l-51.08,0.239
			c-4.688,0.017-8.494,3.846-8.494,8.527v36.545l-49.34-43.042c-1.542-1.337-3.555-2.1-5.598-2.1l-30.515-0.034v-54.147
			c-0.034-17.26-14.023-31.243-31.289-31.278H193.422V71.723c0-3.908,1.576-7.424,4.181-10.035
			c2.617-2.606,6.132-4.181,10.041-4.187H480.71c3.908,0.006,7.424,1.581,10.041,4.187c2.606,2.611,4.181,6.132,4.181,10.035
			v176.282h0.001C494.933,251.913,493.357,255.423,490.752,258.04z"/>
	</g>
</g>
<g>
</g>
<g>
</g>
<g>
</g>
<g>
</g>
<g>
</g>
<g>
</g>
<g>
</g>
<g>
</g>
<g>
</g>
<g>
</g>
<g>
</g>
<g>
</g>
<g>
</g>
<g>
</g>
<g>
</g>
</svg>
